<mxfile host="app.diagrams.net" modified="2023-07-20T15:13:36.589Z" agent="Mozilla/5.0 (Windows NT 10.0; Win64; x64) AppleWebKit/537.36 (KHTML, like Gecko) Chrome/114.0.0.0 Safari/537.36" etag="6ezcm9Hez81JnQ0KKltY" version="21.6.1" type="github">
  <diagram name="Page-1" id="8mqrGvHcFEWJXJVBc4Tt">
    <mxGraphModel dx="1500" dy="824" grid="1" gridSize="10" guides="1" tooltips="1" connect="1" arrows="1" fold="1" page="1" pageScale="1" pageWidth="850" pageHeight="1100" math="0" shadow="0">
      <root>
        <mxCell id="0" />
        <mxCell id="1" parent="0" />
        <mxCell id="418GbzC-R1QBylqEbf2J-47" value="" style="rounded=0;whiteSpace=wrap;html=1;fontStyle=1" parent="1" vertex="1">
          <mxGeometry x="130" y="140" width="540" height="770" as="geometry" />
        </mxCell>
        <mxCell id="418GbzC-R1QBylqEbf2J-10" value="Login" style="ellipse;whiteSpace=wrap;html=1;" parent="1" vertex="1">
          <mxGeometry x="240" y="240" width="120" height="80" as="geometry" />
        </mxCell>
        <mxCell id="ufkjEo-YJ6Al1PabEAxm-11" value="&amp;lt;&amp;lt;INCLUDE&amp;gt;&amp;gt;" style="rounded=0;orthogonalLoop=1;jettySize=auto;html=1;exitX=0.5;exitY=1;exitDx=0;exitDy=0;endArrow=none;endFill=0;dashed=1;" parent="1" source="418GbzC-R1QBylqEbf2J-12" target="418GbzC-R1QBylqEbf2J-15" edge="1">
          <mxGeometry relative="1" as="geometry" />
        </mxCell>
        <mxCell id="ufkjEo-YJ6Al1PabEAxm-16" value="&amp;lt;&amp;lt;EXTEND&amp;gt;&amp;gt;" style="rounded=0;orthogonalLoop=1;jettySize=auto;html=1;exitX=0.5;exitY=0;exitDx=0;exitDy=0;entryX=0;entryY=1;entryDx=0;entryDy=0;dashed=1;" parent="1" source="418GbzC-R1QBylqEbf2J-12" target="418GbzC-R1QBylqEbf2J-10" edge="1">
          <mxGeometry relative="1" as="geometry" />
        </mxCell>
        <mxCell id="418GbzC-R1QBylqEbf2J-12" value="Book Flight" style="ellipse;whiteSpace=wrap;html=1;" parent="1" vertex="1">
          <mxGeometry x="180" y="630" width="120" height="80" as="geometry" />
        </mxCell>
        <mxCell id="ufkjEo-YJ6Al1PabEAxm-8" style="rounded=0;orthogonalLoop=1;jettySize=auto;html=1;exitX=0;exitY=0;exitDx=0;exitDy=0;entryX=0.5;entryY=0.5;entryDx=0;entryDy=0;endArrow=none;endFill=0;entryPerimeter=0;" parent="1" source="418GbzC-R1QBylqEbf2J-14" target="418GbzC-R1QBylqEbf2J-21" edge="1">
          <mxGeometry relative="1" as="geometry" />
        </mxCell>
        <mxCell id="418GbzC-R1QBylqEbf2J-14" value="Track Flight" style="ellipse;whiteSpace=wrap;html=1;" parent="1" vertex="1">
          <mxGeometry x="360" y="480" width="120" height="80" as="geometry" />
        </mxCell>
        <mxCell id="418GbzC-R1QBylqEbf2J-15" value="Pay Flight Transaction" style="ellipse;whiteSpace=wrap;html=1;" parent="1" vertex="1">
          <mxGeometry x="160" y="790" width="120" height="80" as="geometry" />
        </mxCell>
        <mxCell id="ufkjEo-YJ6Al1PabEAxm-7" style="rounded=0;orthogonalLoop=1;jettySize=auto;html=1;endArrow=none;endFill=0;entryX=0.5;entryY=0.5;entryDx=0;entryDy=0;entryPerimeter=0;" parent="1" source="418GbzC-R1QBylqEbf2J-16" target="418GbzC-R1QBylqEbf2J-21" edge="1">
          <mxGeometry relative="1" as="geometry" />
        </mxCell>
        <mxCell id="418GbzC-R1QBylqEbf2J-16" value="Cancel Flight" style="ellipse;whiteSpace=wrap;html=1;" parent="1" vertex="1">
          <mxGeometry x="510" y="640" width="120" height="80" as="geometry" />
        </mxCell>
        <mxCell id="418GbzC-R1QBylqEbf2J-19" value="Display Flight Booking Analytics" style="ellipse;whiteSpace=wrap;html=1;" parent="1" vertex="1">
          <mxGeometry x="350" y="310" width="120" height="80" as="geometry" />
        </mxCell>
        <mxCell id="ufkjEo-YJ6Al1PabEAxm-10" style="rounded=0;orthogonalLoop=1;jettySize=auto;html=1;exitX=0.5;exitY=0;exitDx=0;exitDy=0;endArrow=none;endFill=0;entryX=0.5;entryY=0.5;entryDx=0;entryDy=0;entryPerimeter=0;" parent="1" source="418GbzC-R1QBylqEbf2J-20" target="418GbzC-R1QBylqEbf2J-21" edge="1">
          <mxGeometry relative="1" as="geometry" />
        </mxCell>
        <mxCell id="418GbzC-R1QBylqEbf2J-20" value="Display Flight Schedules" style="ellipse;whiteSpace=wrap;html=1;" parent="1" vertex="1">
          <mxGeometry x="305" y="700" width="120" height="80" as="geometry" />
        </mxCell>
        <mxCell id="ufkjEo-YJ6Al1PabEAxm-14" style="rounded=0;orthogonalLoop=1;jettySize=auto;html=1;exitX=0.5;exitY=0.5;exitDx=0;exitDy=0;exitPerimeter=0;endArrow=none;endFill=0;" parent="1" source="418GbzC-R1QBylqEbf2J-21" target="418GbzC-R1QBylqEbf2J-10" edge="1">
          <mxGeometry relative="1" as="geometry" />
        </mxCell>
        <mxCell id="ufkjEo-YJ6Al1PabEAxm-15" style="rounded=0;orthogonalLoop=1;jettySize=auto;html=1;exitX=0.5;exitY=0.5;exitDx=0;exitDy=0;exitPerimeter=0;entryX=0;entryY=0;entryDx=0;entryDy=0;endArrow=none;endFill=0;" parent="1" source="418GbzC-R1QBylqEbf2J-21" target="418GbzC-R1QBylqEbf2J-12" edge="1">
          <mxGeometry relative="1" as="geometry" />
        </mxCell>
        <mxCell id="418GbzC-R1QBylqEbf2J-21" value="Customer" style="shape=umlActor;verticalLabelPosition=bottom;verticalAlign=top;html=1;outlineConnect=0;" parent="1" vertex="1">
          <mxGeometry x="50" y="350" width="30" height="60" as="geometry" />
        </mxCell>
        <mxCell id="ufkjEo-YJ6Al1PabEAxm-18" style="rounded=0;orthogonalLoop=1;jettySize=auto;html=1;exitX=0.5;exitY=0.5;exitDx=0;exitDy=0;exitPerimeter=0;endArrow=none;endFill=0;" parent="1" source="418GbzC-R1QBylqEbf2J-41" target="418GbzC-R1QBylqEbf2J-10" edge="1">
          <mxGeometry relative="1" as="geometry" />
        </mxCell>
        <mxCell id="ufkjEo-YJ6Al1PabEAxm-23" style="rounded=0;orthogonalLoop=1;jettySize=auto;html=1;exitX=0.5;exitY=0.5;exitDx=0;exitDy=0;exitPerimeter=0;endArrow=none;endFill=0;" parent="1" source="418GbzC-R1QBylqEbf2J-41" target="418GbzC-R1QBylqEbf2J-19" edge="1">
          <mxGeometry relative="1" as="geometry">
            <mxPoint x="552.4264068711927" y="391.7157287525383" as="targetPoint" />
          </mxGeometry>
        </mxCell>
        <mxCell id="418GbzC-R1QBylqEbf2J-41" value="Airline Staff" style="shape=umlActor;verticalLabelPosition=bottom;verticalAlign=top;html=1;outlineConnect=0;" parent="1" vertex="1">
          <mxGeometry x="770" y="320" width="30" height="60" as="geometry" />
        </mxCell>
        <mxCell id="418GbzC-R1QBylqEbf2J-48" value="&lt;font style=&quot;font-size: 24px;&quot;&gt;SK Airlines&lt;/font&gt;" style="text;html=1;strokeColor=none;fillColor=none;align=center;verticalAlign=middle;whiteSpace=wrap;rounded=0;" parent="1" vertex="1">
          <mxGeometry x="335" y="165" width="130" height="30" as="geometry" />
        </mxCell>
        <mxCell id="ufkjEo-YJ6Al1PabEAxm-17" style="rounded=0;orthogonalLoop=1;jettySize=auto;html=1;exitX=0.5;exitY=0.5;exitDx=0;exitDy=0;exitPerimeter=0;entryX=1;entryY=0.5;entryDx=0;entryDy=0;endArrow=none;endFill=0;" parent="1" source="XhT_t0hZH7w9sqAJMHFw-1" target="418GbzC-R1QBylqEbf2J-10" edge="1">
          <mxGeometry relative="1" as="geometry" />
        </mxCell>
        <mxCell id="XhT_t0hZH7w9sqAJMHFw-1" value="Credentials&lt;br&gt;Authenticator" style="shape=umlActor;verticalLabelPosition=bottom;verticalAlign=top;html=1;outlineConnect=0;" parent="1" vertex="1">
          <mxGeometry x="720" y="150" width="30" height="60" as="geometry" />
        </mxCell>
        <mxCell id="ufkjEo-YJ6Al1PabEAxm-27" style="rounded=0;orthogonalLoop=1;jettySize=auto;html=1;exitX=0.5;exitY=0.5;exitDx=0;exitDy=0;exitPerimeter=0;entryX=0;entryY=0;entryDx=0;entryDy=0;endArrow=none;endFill=0;" parent="1" source="XhT_t0hZH7w9sqAJMHFw-3" target="418GbzC-R1QBylqEbf2J-15" edge="1">
          <mxGeometry relative="1" as="geometry" />
        </mxCell>
        <mxCell id="XhT_t0hZH7w9sqAJMHFw-3" value="Payment Processing&lt;br&gt;API" style="shape=umlActor;verticalLabelPosition=bottom;verticalAlign=top;html=1;outlineConnect=0;" parent="1" vertex="1">
          <mxGeometry x="50" y="590" width="30" height="60" as="geometry" />
        </mxCell>
        <mxCell id="ufkjEo-YJ6Al1PabEAxm-22" style="rounded=0;orthogonalLoop=1;jettySize=auto;html=1;exitX=0.5;exitY=0.5;exitDx=0;exitDy=0;exitPerimeter=0;endArrow=none;endFill=0;entryX=0;entryY=0.5;entryDx=0;entryDy=0;" parent="1" source="XhT_t0hZH7w9sqAJMHFw-7" target="418GbzC-R1QBylqEbf2J-14" edge="1">
          <mxGeometry relative="1" as="geometry" />
        </mxCell>
        <mxCell id="XhT_t0hZH7w9sqAJMHFw-7" value="Flight Tracker&lt;br&gt;API" style="shape=umlActor;verticalLabelPosition=bottom;verticalAlign=top;html=1;outlineConnect=0;" parent="1" vertex="1">
          <mxGeometry x="40" y="460" width="30" height="60" as="geometry" />
        </mxCell>
        <mxCell id="ufkjEo-YJ6Al1PabEAxm-9" style="rounded=0;orthogonalLoop=1;jettySize=auto;html=1;exitX=0;exitY=0.5;exitDx=0;exitDy=0;entryX=0.5;entryY=0.5;entryDx=0;entryDy=0;endArrow=none;endFill=0;entryPerimeter=0;" parent="1" source="ufkjEo-YJ6Al1PabEAxm-6" target="418GbzC-R1QBylqEbf2J-21" edge="1">
          <mxGeometry relative="1" as="geometry" />
        </mxCell>
        <mxCell id="ufkjEo-YJ6Al1PabEAxm-6" value="Track Luggage" style="ellipse;whiteSpace=wrap;html=1;" parent="1" vertex="1">
          <mxGeometry x="410" y="400" width="120" height="80" as="geometry" />
        </mxCell>
        <mxCell id="ufkjEo-YJ6Al1PabEAxm-29" style="rounded=0;orthogonalLoop=1;jettySize=auto;html=1;exitX=0.5;exitY=0.5;exitDx=0;exitDy=0;exitPerimeter=0;entryX=1;entryY=1;entryDx=0;entryDy=0;endArrow=none;endFill=0;" parent="1" source="ufkjEo-YJ6Al1PabEAxm-28" target="ufkjEo-YJ6Al1PabEAxm-6" edge="1">
          <mxGeometry relative="1" as="geometry" />
        </mxCell>
        <mxCell id="ufkjEo-YJ6Al1PabEAxm-28" value="In-house Luggage&lt;br&gt;Tracker API" style="shape=umlActor;verticalLabelPosition=bottom;verticalAlign=top;html=1;outlineConnect=0;" parent="1" vertex="1">
          <mxGeometry x="740" y="590" width="30" height="60" as="geometry" />
        </mxCell>
        <mxCell id="ufkjEo-YJ6Al1PabEAxm-38" style="rounded=0;orthogonalLoop=1;jettySize=auto;html=1;exitX=0.5;exitY=0.5;exitDx=0;exitDy=0;exitPerimeter=0;entryX=1;entryY=0.5;entryDx=0;entryDy=0;endArrow=none;endFill=0;" parent="1" source="ufkjEo-YJ6Al1PabEAxm-30" target="ufkjEo-YJ6Al1PabEAxm-31" edge="1">
          <mxGeometry relative="1" as="geometry" />
        </mxCell>
        <mxCell id="ufkjEo-YJ6Al1PabEAxm-30" value="Weather Tracker&lt;br&gt;API" style="shape=umlActor;verticalLabelPosition=bottom;verticalAlign=top;html=1;outlineConnect=0;" parent="1" vertex="1">
          <mxGeometry x="750" y="840" width="30" height="60" as="geometry" />
        </mxCell>
        <mxCell id="ufkjEo-YJ6Al1PabEAxm-32" style="rounded=0;orthogonalLoop=1;jettySize=auto;html=1;exitX=0;exitY=0;exitDx=0;exitDy=0;endArrow=none;endFill=0;entryX=0.5;entryY=0.5;entryDx=0;entryDy=0;entryPerimeter=0;" parent="1" source="ufkjEo-YJ6Al1PabEAxm-31" edge="1" target="418GbzC-R1QBylqEbf2J-21">
          <mxGeometry relative="1" as="geometry">
            <mxPoint x="380" y="560" as="targetPoint" />
          </mxGeometry>
        </mxCell>
        <mxCell id="ufkjEo-YJ6Al1PabEAxm-31" value="Display Weather" style="ellipse;whiteSpace=wrap;html=1;" parent="1" vertex="1">
          <mxGeometry x="470" y="730" width="120" height="80" as="geometry" />
        </mxCell>
        <mxCell id="pQHK-4A6MDw5k9ros_Pi-3" style="rounded=0;orthogonalLoop=1;jettySize=auto;html=1;endArrow=none;endFill=0;entryX=1;entryY=0.5;entryDx=0;entryDy=0;exitX=0.5;exitY=0.5;exitDx=0;exitDy=0;exitPerimeter=0;" edge="1" parent="1" source="418GbzC-R1QBylqEbf2J-41" target="ufkjEo-YJ6Al1PabEAxm-6">
          <mxGeometry relative="1" as="geometry">
            <mxPoint x="740" y="420" as="sourcePoint" />
            <mxPoint x="519" y="406" as="targetPoint" />
          </mxGeometry>
        </mxCell>
        <mxCell id="pQHK-4A6MDw5k9ros_Pi-5" style="rounded=0;orthogonalLoop=1;jettySize=auto;html=1;exitX=0.5;exitY=0.5;exitDx=0;exitDy=0;exitPerimeter=0;endArrow=none;endFill=0;entryX=1;entryY=0.5;entryDx=0;entryDy=0;" edge="1" parent="1" source="418GbzC-R1QBylqEbf2J-41" target="418GbzC-R1QBylqEbf2J-14">
          <mxGeometry relative="1" as="geometry">
            <mxPoint x="796" y="514" as="sourcePoint" />
            <mxPoint x="560" y="490" as="targetPoint" />
          </mxGeometry>
        </mxCell>
        <mxCell id="pQHK-4A6MDw5k9ros_Pi-6" style="rounded=0;orthogonalLoop=1;jettySize=auto;html=1;exitX=0.5;exitY=0.5;exitDx=0;exitDy=0;exitPerimeter=0;endArrow=none;endFill=0;entryX=1;entryY=0;entryDx=0;entryDy=0;" edge="1" parent="1" source="418GbzC-R1QBylqEbf2J-41" target="418GbzC-R1QBylqEbf2J-16">
          <mxGeometry relative="1" as="geometry">
            <mxPoint x="785" y="460" as="sourcePoint" />
            <mxPoint x="549" y="436" as="targetPoint" />
          </mxGeometry>
        </mxCell>
        <mxCell id="pQHK-4A6MDw5k9ros_Pi-7" style="rounded=0;orthogonalLoop=1;jettySize=auto;html=1;exitX=0.5;exitY=0.5;exitDx=0;exitDy=0;exitPerimeter=0;endArrow=none;endFill=0;entryX=1;entryY=0.5;entryDx=0;entryDy=0;" edge="1" parent="1" source="418GbzC-R1QBylqEbf2J-41" target="418GbzC-R1QBylqEbf2J-20">
          <mxGeometry relative="1" as="geometry">
            <mxPoint x="795" y="470" as="sourcePoint" />
            <mxPoint x="559" y="446" as="targetPoint" />
          </mxGeometry>
        </mxCell>
        <mxCell id="pQHK-4A6MDw5k9ros_Pi-9" style="rounded=0;orthogonalLoop=1;jettySize=auto;html=1;exitX=0.5;exitY=0.5;exitDx=0;exitDy=0;exitPerimeter=0;endArrow=none;endFill=0;entryX=1;entryY=0.5;entryDx=0;entryDy=0;" edge="1" parent="1" source="418GbzC-R1QBylqEbf2J-41" target="418GbzC-R1QBylqEbf2J-12">
          <mxGeometry relative="1" as="geometry">
            <mxPoint x="805" y="480" as="sourcePoint" />
            <mxPoint x="569" y="456" as="targetPoint" />
          </mxGeometry>
        </mxCell>
      </root>
    </mxGraphModel>
  </diagram>
</mxfile>
